<svg xmlns="http://www.w3.org/2000/svg" viewBox="0 0 32 32" fill="none" role="img" aria-label="Bridge Network">
  <defs>
    <linearGradient id="g" x1="4" y1="2" x2="28" y2="30" gradientUnits="userSpaceOnUse">
      <stop stop-color="#6b7280"/>
      <stop offset="1" stop-color="#374151"/>
    </linearGradient>
    <linearGradient id="book" x1="10" y1="5" x2="26" y2="27" gradientUnits="userSpaceOnUse">
      <stop stop-color="#ef4444"/>
      <stop offset="1" stop-color="#b91c1c"/>
    </linearGradient>
  </defs>
  <rect width="32" height="32" rx="8" fill="url(#g)"/>
  <rect x="1.75" y="1.75" width="28.5" height="28.5" rx="6.5" stroke="#9ca3af" stroke-opacity="0.45" stroke-width="1"/>
  <path fill="url(#book)" d="M9 6.25c0-.55.45-1 1-1h12.25c.83 0 1.5.67 1.5 1.5v18.5c0 .83-.67 1.5-1.5 1.5H10c-.55 0-1-.45-1-1V6.25z"/>
  <path fill="#7f1d1d" d="M9 6.25c0-.55.45-1 1-1h2.25v22H10c-.55 0-1-.45-1-1V6.25z"/>
  <path fill="#fca5a5" fill-opacity="0.35" d="M10.25 5.5h.8v22h-.8z"/>
  <path fill="#f3f4f6" d="M22.75 6.75h1.1c.45 0 .8.35.8.8v17.4c0 .45-.35.8-.8.8h-1.1V6.75z"/>
  <rect x="13.5" y="11" width="7" height="1.2" rx="0.6" fill="#fecaca" fill-opacity="0.85"/>
  <rect x="13.5" y="13.75" width="5" height="0.9" rx="0.45" fill="#fecaca" fill-opacity="0.55"/>
</svg>
